<svg xmlns="http://www.w3.org/2000/svg" xmlns:xlink="http://www.w3.org/1999/xlink" width="1080" zoomAndPan="magnify" viewBox="0 0 810 809.999993" height="1080" preserveAspectRatio="xMidYMid meet" version="1.0"><defs><clipPath id="2044bb1557"><path d="M 1 24 L 805 24 L 805 769 L 1 769 Z M 1 24 " clip-rule="nonzero"/></clipPath><clipPath id="78d9deced2"><path d="M -90.996094 496.929688 L 544.277344 -74.183594 L 919.335938 343.007812 L 284.0625 914.125 Z M -90.996094 496.929688 " clip-rule="nonzero"/></clipPath><clipPath id="293e8ca07a"><path d="M -90.996094 496.929688 L 544.277344 -74.183594 L 919.335938 343.007812 L 284.0625 914.125 Z M -90.996094 496.929688 " clip-rule="nonzero"/></clipPath><clipPath id="8c23163fb0"><path d="M 182 63 L 797 63 L 797 764 L 182 764 Z M 182 63 " clip-rule="nonzero"/></clipPath><clipPath id="3eab5c9cc8"><path d="M 822.5625 116.6875 L 728.59375 810.097656 L 139.972656 730.328125 L 233.945312 36.917969 Z M 822.5625 116.6875 " clip-rule="nonzero"/></clipPath><clipPath id="7429ca61df"><path d="M 822.5625 116.6875 L 728.59375 810.097656 L 139.972656 730.328125 L 233.945312 36.917969 Z M 822.5625 116.6875 " clip-rule="nonzero"/></clipPath></defs><g clip-path="url(#2044bb1557)"><g clip-path="url(#78d9deced2)"><g clip-path="url(#293e8ca07a)"><path fill="#ffffff" d="M 64.234375 648.726562 C 53.015625 632.726562 38.761719 619.113281 26.453125 603.933594 C 14.148438 588.753906 3.523438 571.21875 1.585938 551.777344 C -0.480469 531 7.664062 510.386719 18.976562 492.847656 C 30.292969 475.308594 44.761719 460.050781 57.347656 443.402344 C 94.652344 394.058594 114.949219 333.1875 154.457031 285.59375 C 177.929688 257.316406 208.902344 233.921875 244.761719 225.867188 C 269.484375 220.3125 295.183594 222.230469 320.492188 221.035156 C 333.148438 220.441406 345.835938 219.042969 358.019531 215.585938 C 370.207031 212.125 381.921875 206.527344 391.46875 198.203125 C 407.15625 184.519531 415.882812 164.609375 422.429688 144.847656 C 428.980469 125.089844 433.945312 104.5625 444.183594 86.4375 C 456.132812 65.289062 475.027344 48.3125 496.925781 37.800781 C 518.820312 27.289062 543.601562 23.15625 567.824219 25.007812 C 616.273438 28.710938 660.972656 56.128906 692.347656 93.246094 C 718.859375 124.609375 736.582031 162.242188 756.179688 198.328125 C 767.71875 219.574219 780.023438 240.480469 789.355469 262.78125 C 798.691406 285.082031 805.019531 309.070312 803.910156 333.214844 C 802.953125 354.015625 796.503906 374.261719 787.582031 393.070312 C 778.664062 411.878906 767.296875 429.402344 755.941406 446.847656 C 723.503906 496.671875 690.085938 547.226562 643.761719 584.484375 C 590.847656 627.035156 524.066406 649.769531 471.792969 693.105469 C 455.082031 706.957031 440.058594 722.753906 423.289062 736.535156 C 406.519531 750.3125 387.511719 762.234375 366.238281 766.539062 C 342.421875 771.359375 317.734375 766.292969 294.417969 759.429688 C 271.105469 752.570312 248.105469 743.855469 223.949219 741.183594 C 206.886719 739.292969 189.648438 740.472656 172.492188 739.820312 C 155.339844 739.167969 137.746094 736.503906 122.992188 727.71875 C 108.746094 719.230469 98.230469 705.671875 89.578125 691.523438 C 80.921875 677.375 73.757812 662.308594 64.234375 648.726562 Z M 64.234375 648.726562 " fill-opacity="1" fill-rule="nonzero"/></g></g></g><path fill="#e6e2e2" d="M 192.9375 307.234375 C 430.203125 205.484375 213.445312 85.355469 379.664062 21.1875 C 545.882812 -42.980469 668.617188 114.566406 639.410156 318.886719 C 620.214844 452.804688 919.667969 692.570312 677.316406 780.042969 C 434.960938 867.515625 415.925781 651.871094 254.140625 622.496094 C 61.667969 587.375 70.363281 359.75 192.9375 307.234375 Z M 192.9375 307.234375 " fill-opacity="1" fill-rule="nonzero"/><g clip-path="url(#8c23163fb0)"><g clip-path="url(#3eab5c9cc8)"><g clip-path="url(#7429ca61df)"><path fill="#c6c2c2" d="M 795.992188 311.632812 C 797.980469 289.25 794.671875 266.339844 784.515625 246.070312 C 774.480469 226.050781 758.382812 209.742188 740.082031 197.5 C 721.804688 185.269531 701.398438 176.953125 680.746094 170.601562 C 639.449219 157.898438 596.675781 152.621094 558.183594 136.710938 C 528.449219 124.417969 501.132812 105.707031 471.148438 90.980469 C 429.644531 70.605469 382.367188 58.472656 336.023438 65.800781 C 312.839844 69.46875 290.257812 78.039062 271.023438 91.800781 C 251.773438 105.574219 236.066406 124.558594 227.207031 146.699219 C 214.960938 177.3125 216.53125 211.257812 222.839844 242.675781 C 228.117188 268.964844 236.492188 294.097656 240.96875 319.574219 C 245.433594 345.007812 245.796875 371.574219 236.164062 394.558594 C 226.035156 418.730469 204.546875 438.476562 192.617188 465.109375 C 179.8125 493.699219 180.628906 526.546875 189.15625 556.035156 C 197.664062 585.457031 213.320312 611.898438 229.996094 636.777344 C 253.640625 672.058594 280.824219 706.3125 316.382812 730.847656 C 334.167969 743.121094 353.941406 752.8125 375.042969 758.257812 C 396.152344 763.707031 418.5625 764.824219 440.078125 760.296875 L 440.085938 760.296875 C 465.671875 754.90625 488.992188 741.769531 508.535156 724.933594 C 528.058594 708.113281 543.953125 687.703125 557.722656 666.355469 C 585.253906 623.671875 604.867188 576.84375 634.667969 537.578125 C 668.800781 492.605469 716.203125 457.792969 752.144531 411.730469 C 770.125 388.6875 785.183594 362.574219 792.292969 333.726562 C 794.074219 326.5 795.328125 319.09375 795.992188 311.632812 Z M 785.632812 310.742188 C 785.023438 317.648438 783.867188 324.523438 782.214844 331.246094 C 775.574219 358.195312 761.332031 383.078125 743.960938 405.339844 C 709.207031 449.882812 661.75 484.730469 626.402344 531.304688 C 595.535156 571.972656 575.855469 619.085938 548.992188 660.734375 C 535.566406 681.550781 520.246094 701.136719 501.761719 717.0625 C 483.289062 732.972656 461.441406 745.1875 437.945312 750.136719 C 418.191406 754.296875 397.355469 753.296875 377.632812 748.207031 C 357.902344 743.109375 339.199219 733.972656 322.273438 722.292969 C 288.40625 698.921875 261.941406 665.789062 238.621094 630.992188 C 222.171875 606.449219 207.152344 580.890625 199.128906 553.148438 C 191.128906 525.476562 190.578125 495.058594 202.097656 469.347656 C 212.84375 445.355469 234.433594 425.558594 245.742188 398.570312 C 256.503906 372.890625 255.855469 344.308594 251.195312 317.773438 C 246.542969 291.285156 238.121094 266.078125 233.015625 240.636719 C 226.929688 210.320312 225.703125 178.40625 236.847656 150.554688 C 244.890625 130.453125 259.316406 112.941406 277.0625 100.246094 C 294.824219 87.535156 315.90625 79.492188 337.652344 76.054688 C 381.164062 69.171875 426.414062 80.574219 466.574219 100.292969 C 495.65625 114.574219 523.148438 133.460938 554.222656 146.308594 C 594.449219 162.933594 637.578125 168.175781 677.691406 180.511719 C 697.742188 186.679688 717.199219 194.671875 734.3125 206.125 C 751.410156 217.558594 766.183594 232.660156 775.234375 250.714844 C 784.382812 268.976562 787.464844 290.011719 785.636719 310.730469 Z M 785.632812 310.742188 " fill-opacity="1" fill-rule="nonzero"/></g></g></g></svg>